<svg width="339" height="341" viewBox="0 0 339 341" fill="none" xmlns="http://www.w3.org/2000/svg">
<path fill-rule="evenodd" clip-rule="evenodd" d="M0.366608 154.5L16.1169 114.275L50.8684 86.7488L77.1136 74.501L105.452 69.5367L118.886 48.1868L132.602 20.0515L174.25 0.117615L212.639 9.08704L248.585 48.2046V76.1162L231.301 93.0613L226.811 113.436L216.726 118.316L224.586 129.835L240 148.966L235.015 169.328L253.218 189L256.95 216.151H278.384L282.589 221.812L283.845 216.928L308.555 211.011L321.867 194.969H339L334.633 340.419L41.4053 330.508V311.387L0.366608 300.466V154.5ZM46.0387 307.826V326.028L330 335.626V199.603H324.043L311.135 215.158L287.637 220.784L284.659 232.368L276.054 220.784H253.218L247.592 194.969L230.382 170.81V148.966L221.115 133.08L210.855 126.13L212.51 115.209L222.77 110.244L227.072 90.7179L243.951 74.1701V50.0102L210.193 13.2739L174.25 9.08704L136.059 23.5336L123.152 50.0102L114.216 74.1701H106.273L92.7037 79.1344H78.1416L53.3198 90.7179L19.8931 117.194L5.00001 150.952V296.904L46.0387 307.826Z" fill="white"/>
</svg>
